<svg width="256" height="268" viewBox="0 0 256 268" fill="none" xmlns="http://www.w3.org/2000/svg">
<g filter="url(#filter0_f_862_395)">
<path d="M113.704 227.272C113.704 227.272 159.67 203.841 186.599 177.835C196.533 168.243 204.956 157.901 210.016 149.084C215.076 140.267 216.358 133.698 213.58 130.822C210.803 127.945 204.193 128.997 195.205 133.747C186.217 138.496 175.587 146.553 165.654 156.145C138.724 182.151 113.704 227.272 113.704 227.272ZM157.4 185.075C156.011 183.637 156.652 180.352 159.182 175.944C161.712 171.535 165.923 166.364 170.89 161.568C175.857 156.772 181.172 152.743 185.666 150.368C190.16 147.994 193.465 147.468 194.853 148.906C196.242 150.344 195.601 153.629 193.071 158.037C190.541 162.445 186.33 167.617 181.363 172.413C176.396 177.209 171.081 181.238 166.587 183.612C162.093 185.987 158.788 186.513 157.4 185.075Z" fill="#0D0D0D"/>
</g>
<path d="M115.625 231C115.625 231 202.25 148.908 202.25 86.625C202.25 63.6506 193.123 41.6172 176.878 25.3719C160.633 9.12654 138.599 0 115.625 0C92.6506 0 70.6172 9.12654 54.3719 25.3719C38.1265 41.6172 29 63.6506 29 86.625C29 148.908 115.625 231 115.625 231ZM115.625 129.938C104.138 129.938 93.1211 125.374 84.9984 117.252C76.8758 109.129 72.3125 98.1122 72.3125 86.625C72.3125 75.1378 76.8758 64.1211 84.9984 55.9984C93.1211 47.8758 104.138 43.3125 115.625 43.3125C127.112 43.3125 138.129 47.8758 146.252 55.9984C154.374 64.1211 158.938 75.1378 158.938 86.625C158.938 98.1122 154.374 109.129 146.252 117.252C138.129 125.374 127.112 129.938 115.625 129.938Z" fill="#1E3A5F"/>
<defs>
<filter id="filter0_f_862_395" x="73.7031" y="89.2305" width="181.314" height="178.041" filterUnits="userSpaceOnUse" color-interpolation-filters="sRGB">
<feFlood flood-opacity="0" result="BackgroundImageFix"/>
<feBlend mode="normal" in="SourceGraphic" in2="BackgroundImageFix" result="shape"/>
<feGaussianBlur stdDeviation="20" result="effect1_foregroundBlur_862_395"/>
</filter>
</defs>
</svg>
